<svg xmlns="http://www.w3.org/2000/svg" viewBox="0 0 640 400" width="640" height="400">
  <defs><linearGradient id="g" x1="0" y1="0" x2="1" y2="1">
    <stop offset="0" stop-color="#3B82F6"/><stop offset="0.5" stop-color="#8B5CF6"/><stop offset="1" stop-color="#06B6D4"/>
  </linearGradient>
    <linearGradient id="bg" x1="0" y1="0" x2="1" y2="1"><stop offset="0" stop-color="#0b1120"/><stop offset="1" stop-color="#111827"/></linearGradient>
  </defs>
  <rect width="640" height="400" fill="url(#bg)"/>
  <rect width="640" height="400" fill="url(#g)" opacity="0.06"/>
  <circle cx="540" cy="70" r="120" fill="#8B5CF6" opacity="0.10"/>
  <circle cx="90" cy="360" r="140" fill="#8B5CF6" opacity="0.08"/>
  <rect x="0" y="0" width="640" height="46" fill="#0a1018"/>
  <circle cx="26" cy="23" r="6" fill="#ef4444"/><circle cx="48" cy="23" r="6" fill="#f59e0b"/><circle cx="70" cy="23" r="6" fill="#22c55e"/>
  
    <rect x="40" y="330" width="91.5" height="34" rx="17" fill="#050816" stroke="url(#g)" stroke-width="1.3"/>
  <text x="58" y="352" font-family="'Space Grotesk',Arial,sans-serif" font-size="16" font-weight="700" fill="#e6ecff">Webflow</text>
    <rect x="40" y="80" width="140" height="200" rx="10" fill="#0d1424" stroke="#3B82F6" stroke-width="1"/>
    <rect x="58" y="100" width="104" height="10" rx="5" fill="#3B82F6"/>
    <rect x="58" y="120" width="80" height="8" rx="4" fill="#64748b"/>
    <rect x="58" y="150" width="104" height="70" rx="8" fill="#111827"/>
    <rect x="200" y="80" width="400" height="95" rx="10" fill="#0d1424" stroke="url(#g)" stroke-width="1.2"/>
    <rect x="220" y="100" width="180" height="14" rx="7" fill="#8B5CF6"/>
    <rect x="220" y="124" width="300" height="8" rx="4" fill="#06B6D4" opacity="0.6"/>
    <rect x="220" y="140" width="120" height="24" rx="12" fill="url(#g)"/>
    <rect x="200" y="190" width="128" height="90" rx="10" fill="#0d1424" stroke="#06B6D4" stroke-width="1"/>
    <rect x="336" y="190" width="128" height="90" rx="10" fill="#0d1424" stroke="#8B5CF6" stroke-width="1"/>
    <rect x="472" y="190" width="128" height="90" rx="10" fill="#0d1424" stroke="#3B82F6" stroke-width="1"/>
</svg>