<svg xmlns="http://www.w3.org/2000/svg" viewBox="0 0 1200 630" width="1200" height="630">
  <defs><linearGradient id="g" x1="0" y1="0" x2="1" y2="1">
    <stop offset="0" stop-color="#3B82F6"/><stop offset="0.5" stop-color="#8B5CF6"/><stop offset="1" stop-color="#06B6D4"/>
  </linearGradient></defs>
  <rect width="1200" height="630" fill="#050816"/>
  <circle cx="1000" cy="130" r="260" fill="#8B5CF6" opacity="0.14"/>
  <circle cx="180" cy="560" r="280" fill="#3B82F6" opacity="0.12"/>
  <circle cx="640" cy="315" r="200" fill="#06B6D4" opacity="0.06"/>
  <rect x="70" y="70" width="80" height="80" rx="20" fill="#050816" stroke="url(#g)" stroke-width="3"/>
  <text x="110" y="126" font-family="'Space Grotesk',Arial" font-size="40" font-weight="700" text-anchor="middle" fill="url(#g)">PS</text>
  <text x="70" y="320" font-family="'Space Grotesk',Arial,sans-serif" font-size="88" font-weight="700" fill="#e6ecff">Prem Singh</text>
  <text x="72" y="390" font-family="'Space Grotesk',Arial,sans-serif" font-size="42" font-weight="600" fill="url(#g)">Frontend Engineer &amp; CRO Specialist</text>
  <text x="72" y="452" font-family="Inter,Arial,sans-serif" font-size="28" fill="#94a3b8">5+ yrs · 30+ landing pages · 100+ experiments · 25% faster</text>
  <g font-family="Inter,Arial" font-size="22" fill="#e6ecff">
    <rect x="72" y="500" width="150" height="50" rx="25" fill="#050816" stroke="url(#g)"/><text x="147" y="532" text-anchor="middle">JavaScript</text>
    <rect x="238" y="500" width="150" height="50" rx="25" fill="#050816" stroke="url(#g)"/><text x="313" y="532" text-anchor="middle">TypeScript</text>
    <rect x="404" y="500" width="130" height="50" rx="25" fill="#050816" stroke="url(#g)"/><text x="469" y="532" text-anchor="middle">Webflow</text>
    <rect x="550" y="500" width="130" height="50" rx="25" fill="#050816" stroke="url(#g)"/><text x="615" y="532" text-anchor="middle">HubSpot</text>
    <rect x="696" y="500" width="90" height="50" rx="25" fill="#050816" stroke="url(#g)"/><text x="741" y="532" text-anchor="middle">VWO</text>
  </g>
</svg>