<svg xmlns="http://www.w3.org/2000/svg" viewBox="0 0 640 400" width="640" height="400">
  <defs><linearGradient id="g" x1="0" y1="0" x2="1" y2="1">
    <stop offset="0" stop-color="#3B82F6"/><stop offset="0.5" stop-color="#8B5CF6"/><stop offset="1" stop-color="#06B6D4"/>
  </linearGradient>
    <linearGradient id="bg" x1="0" y1="0" x2="1" y2="1"><stop offset="0" stop-color="#0b1120"/><stop offset="1" stop-color="#111827"/></linearGradient>
  </defs>
  <rect width="640" height="400" fill="url(#bg)"/>
  <rect width="640" height="400" fill="url(#g)" opacity="0.06"/>
  <circle cx="540" cy="70" r="120" fill="#06B6D4" opacity="0.10"/>
  <circle cx="90" cy="360" r="140" fill="#06B6D4" opacity="0.08"/>
  <rect x="0" y="0" width="640" height="46" fill="#0a1018"/>
  <circle cx="26" cy="23" r="6" fill="#ef4444"/><circle cx="48" cy="23" r="6" fill="#f59e0b"/><circle cx="70" cy="23" r="6" fill="#22c55e"/>
  
    <rect x="40" y="330" width="123" height="34" rx="17" fill="#050816" stroke="url(#g)" stroke-width="1.3"/>
  <text x="58" y="352" font-family="'Space Grotesk',Arial,sans-serif" font-size="16" font-weight="700" fill="#e6ecff">Web Vitals</text>
    <circle cx="150" cy="160" r="60" fill="none" stroke="#1f2937" stroke-width="12"/>
    <circle cx="150" cy="160" r="60" fill="none" stroke="url(#g)" stroke-width="12" stroke-linecap="round" stroke-dasharray="330 377" transform="rotate(-90 150 160)"/>
    <text x="150" y="168" font-family="'Space Grotesk',Arial" font-size="34" font-weight="700" text-anchor="middle" fill="#e6ecff">96</text>
    <rect x="270" y="110" width="330" height="14" rx="7" fill="#3B82F6" opacity="0.35"/><rect x="270" y="110" width="280" height="14" rx="7" fill="#3B82F6"/>
    <rect x="270" y="145" width="330" height="14" rx="7" fill="#8B5CF6" opacity="0.35"/><rect x="270" y="145" width="230" height="14" rx="7" fill="#8B5CF6"/>
    <rect x="270" y="180" width="330" height="14" rx="7" fill="#06B6D4" opacity="0.35"/><rect x="270" y="180" width="300" height="14" rx="7" fill="#06B6D4"/>
    <rect x="270" y="215" width="330" height="14" rx="7" fill="#22c55e" opacity="0.35"/><rect x="270" y="215" width="250" height="14" rx="7" fill="#22c55e"/>
</svg>